Coordinates
version=1
nRows=14
nColumns=36
inDegrees=yes

Units are S.I. units (second, meters, Newtons, ...)
If the header above contains a line with 'inDegrees', this indicates whether rotational values are in degrees (yes) or radians (no).

endheader
time	pelvis_tilt	pelvis_list	pelvis_rotation	pelvis_tx	pelvis_ty	pelvis_tz	hip_flexion_r	hip_adduction_r	hip_rotation_r	knee_angle_r	knee_angle_r_beta	ankle_angle_r	subtalar_angle_r	mtp_angle_r	hip_flexion_l	hip_adduction_l	hip_rotation_l	knee_angle_l	knee_angle_l_beta	ankle_angle_l	subtalar_angle_l	mtp_angle_l	lumbar_extension	lumbar_bending	lumbar_rotation	arm_flex_r	arm_add_r	arm_rot_r	elbow_flex_r	pro_sup_r	arm_flex_l	arm_add_l	arm_rot_l	elbow_flex_l	pro_sup_l
      1.23750000	    -17.34365530	      1.31843615	      0.75187743	     -0.96111863	      1.22380787	     -0.08181781	     38.12917453	     -4.38203543	     -2.93219703	     45.55276821	      0.79504579	     18.80876427	    -20.95094954	     -7.49999987	     37.94611100	      0.62147973	     -3.01376777	     45.23817153	      0.78955504	     18.14590376	    -14.34504375	     -7.49999987	    -23.43267555	      3.96771029	     -2.58505520	     -7.51550633	    -14.57552464	     46.49067898	     15.85211429	     46.48343413	      3.74861699	    -13.56467472	     53.70509623	     17.69588652	     51.54384539
      1.24166670	    -16.99066829	      1.30694827	      0.78370479	     -0.96344469	      1.22709016	     -0.08246114	     38.14189099	     -4.42500772	     -2.99826658	     46.23198926	      0.80690043	     19.07558949	    -20.79328372	     -7.49999987	     38.00190221	      0.54604963	     -2.93574730	     45.94341074	      0.80186379	     18.41534476	    -13.85462817	     -7.49999987	    -24.71489030	      3.97016855	     -2.91017048	     -6.66629483	    -14.36677185	     45.32590868	     15.72986269	     46.50744921	      4.29981616	    -13.44632871	     53.12667827	     17.50465999	     51.47385365
      1.24583330	    -16.91513828	      1.31729895	      0.85321140	     -0.96210655	      1.22062034	     -0.08096464	     38.48250554	     -4.54197948	     -3.09345169	     47.15271993	      0.82297021	     19.72765070	    -20.44024197	     -7.49999987	     38.46643295	      0.36131457	     -3.11337729	     46.98491820	      0.82004152	     18.91771963	    -13.58070997	     -7.49999987	    -25.46899503	      4.01722815	     -2.94702953	     -6.47582741	    -13.70796882	     42.52350752	     15.35858833	     46.56787417	      4.68037048	    -13.28785969	     51.60907409	     17.36886927	     51.36644167
      1.25000000	    -16.78156311	      1.38057181	      0.85030156	     -0.95801869	      1.22146060	     -0.08141138	     38.54389150	     -4.69258238	     -3.16587864	     47.70775485	      0.83265740	     19.83357599	    -20.55647576	     -7.49999987	     38.59026532	      0.29271800	     -3.22589472	     47.62421409	      0.83119934	     19.01267399	    -13.70707082	     -7.49999987	    -26.34190433	      3.92878526	     -2.93715991	     -5.82368458	    -13.70452735	     42.36724669	     15.38255037	     46.55355412	      5.12700443	    -13.17583902	     51.51476481	     17.29853837	     51.33559442
      1.25416670	    -16.37823618	      1.44474717	      0.81062300	     -0.96147250	      1.21441328	     -0.07934508	     38.63529907	     -4.75576303	     -3.19425708	     48.70326766	      0.85003238	     20.89845846	    -19.97510036	     -7.49999987	     38.69057490	      0.13679733	     -3.38646601	     48.75856613	      0.85099752	     19.78992137	    -13.28113694	     -7.49999987	    -27.60812606	      3.80433264	     -2.66426345	     -5.04896032	    -13.41695282	     37.92985000	     15.43843006	     48.10185492	      5.67382863	    -12.95362969	     48.67202978	     17.04161605	     51.50907177
      1.25833330	    -16.25721296	      1.49150195	      0.70016468	     -0.96268348	      1.21086941	     -0.08141274	     39.14223691	     -4.85628951	     -3.15198700	     49.89822930	      0.87088839	     21.56868178	    -19.77506030	     -7.49999987	     39.08958880	      0.06555389	     -3.54599685	     49.78749436	      0.86895570	     20.42465733	    -13.21039977	     -7.49999987	    -28.58209519	      3.76812063	     -2.38932164	     -3.92827244	    -13.52942896	     37.38256770	     15.48136459	     48.41164116	      6.28627675	    -12.69320659	     48.16183874	     17.01784974	     51.62571695
      1.26250000	    -16.43876507	      1.52462890	      0.53613640	     -0.96248280	      1.20909313	     -0.08040466	     39.93286000	     -4.91976152	     -3.13481373	     50.94862370	      0.88922123	     21.99890223	    -19.93929520	     -7.49999987	     39.76037482	     -0.01682802	     -3.68874248	     50.76362257	      0.88599235	     21.03647610	    -13.40726837	     -7.49999987	    -29.11355707	      3.69208407	     -2.09235658	     -2.91403264	    -13.86518347	     37.05572305	     15.72373049	     49.08030471	      6.77285030	    -12.59665802	     47.78373841	     17.29000118	     52.07482840
      1.26666670	    -16.31488787	      1.57653976	      0.36754864	     -0.96366746	      1.20870594	     -0.07990882	     40.35222588	     -4.94709408	     -3.02674897	     51.85890336	      0.90510861	     22.47464386	    -19.56690735	     -7.49999987	     39.93989119	     -0.13850732	     -3.97562050	     51.40478918	      0.89718282	     21.40110496	    -13.72371139	     -7.49999987	    -30.08588006	      3.53789497	     -1.85708231	     -1.62471283	    -13.99075129	     36.55809885	     15.64869734	     49.67132818	      7.47933074	    -12.23403244	     46.96668160	     16.89933296	     52.34511544
      1.27083330	    -16.19482373	      1.52135157	      0.24311749	     -0.96135870	      1.20640723	     -0.07854498	     40.63410354	     -4.86792407	     -2.97434273	     52.63769116	      0.91870102	     22.68316989	    -19.54451619	     -7.49999987	     40.12297853	     -0.29157660	     -4.02003282	     52.04120804	      0.90829043	     21.71619971	    -13.97045077	     -7.49999987	    -30.90036797	      3.37744610	     -1.70001553	     -0.44132131	    -14.24600944	     36.45313198	     15.83616174	     49.70400360	      8.06148160	    -12.10198249	     46.82044476	     16.86603483	     52.32706202
      1.27500000	    -15.94131489	      1.57017312	      0.08167770	     -0.95965722	      1.20283968	     -0.07734389	     40.71149993	     -4.79506173	     -2.75090157	     53.36043711	      0.93131532	     22.91656652	    -19.64489755	     -7.49999987	     40.04237624	     -0.42905871	     -4.17187251	     52.58220059	      0.91773253	     22.07065704	    -14.23685634	     -7.49999987	    -31.91088588	      3.03353242	     -1.59884875	      0.52160395	    -14.55741974	     35.64386183	     16.68854321	     50.13495460	      8.46759736	    -12.08341075	     45.55005258	     17.04982343	     52.45969652
      1.27916670	    -15.72406176	      1.60515083	     -0.09314904	     -0.95957766	      1.20190913	     -0.07697745	     40.76998736	     -4.78447522	     -2.72377417	     53.96363401	      0.94184309	     23.71615102	    -18.87391606	     -7.49999987	     40.11952059	     -0.60991377	     -4.33154790	     53.30354923	      0.93032244	     22.42274074	    -13.96561511	     -7.49999987	    -32.78381345	      2.78502260	     -1.46215502	      1.63844108	    -14.71875147	     35.56515002	     16.83343721	     50.93418413	      9.08814338	    -11.82231280	     44.71581495	     16.73852825	     52.75932165
      1.28333330	    -15.64149748	      1.65523959	     -0.29702597	     -0.95842008	      1.19455139	     -0.07583176	     41.20061163	     -4.69167936	     -2.61984547	     54.99225335	      0.95979588	     24.18845379	    -19.26638086	     -7.49999987	     40.52452466	     -0.81129749	     -4.47735301	     54.44496431	      0.95024389	     22.87539333	    -14.03805234	     -7.49999987	    -33.58858878	      2.59142539	     -1.37235633	      2.42624551	    -14.81691979	     34.85660852	     17.37300772	     51.72427026	      9.41539536	    -11.74454303	     43.23845557	     17.03678579	     53.14353558
      1.28750000	    -15.89027690	      1.71430860	     -0.46703792	     -0.95737373	      1.18680361	     -0.07501569	     42.10097540	     -4.67938193	     -2.56993502	     56.35090855	      0.98350889	     25.39605428	    -18.70158560	     -7.49999987	     41.48892899	     -1.06327837	     -4.64898555	     55.87776206	      0.97525093	     23.54341652	    -14.14672677	     -7.49999987	    -33.82675424	      2.39936669	     -1.39603910	      3.14546567	    -14.59043901	     34.47115442	     17.12547726	     52.71513833	      9.66574894	    -11.57361564	     41.84952387	     16.98322617	     53.66341478
      1.29166670	    -15.87028266	      1.78583913	     -0.66734865	     -0.95522212	      1.18453432	     -0.07370278	     42.47801118	     -4.62925829	     -2.43066817	     57.37888611	      1.00145048	     26.25819385	    -18.48954374	     -7.49999987	     41.95316591	     -1.24541829	     -4.76993163	     57.04280352	      0.99558474	     24.09304592	    -14.15088526	     -7.49999987	    -34.34764730	      2.19015459	     -1.49197295	      3.98539189	    -14.46226140	     34.29750905	     17.04030195	     53.56984462	     10.02794096	    -11.50944456	     41.28290364	     16.94728888	     54.25874816
